<svg width="105" height="101" viewBox="0 0 105 101" fill="none" xmlns="http://www.w3.org/2000/svg">
<path d="M20.1126 41.5729C26.08 42.8511 31.9537 39.0497 33.2319 33.0824C34.5101 27.115 30.7088 21.2413 24.7414 19.9631C18.774 18.6848 12.9003 22.4862 11.6221 28.4536C10.3439 34.4209 14.1452 40.2947 20.1126 41.5729Z" fill="#4BB79A"/>
<path d="M43.2428 28.4565C49.2101 29.7347 55.0839 25.9334 56.3621 19.966C57.6403 13.9986 53.8389 8.12491 47.8716 6.8467C41.9042 5.56849 36.0305 9.36983 34.7523 15.3372C33.474 21.3046 37.2754 27.1783 43.2428 28.4565Z" fill="#4BB79A"/>
<path d="M69.1551 34.0069C75.1225 35.2851 80.9962 31.4838 82.2744 25.5164C83.5526 19.549 79.7513 13.6753 73.7839 12.3971C67.8165 11.1189 61.9428 14.9202 60.6646 20.8876C59.3864 26.855 63.1877 32.7287 69.1551 34.0069Z" fill="#4BB79A"/>
<path d="M84.8932 55.4488C90.8605 56.727 96.7343 52.9257 98.0125 46.9583C99.2907 40.9909 95.4893 35.1172 89.5219 33.839C83.5546 32.5608 77.6808 36.3621 76.4026 42.3295C75.1244 48.2969 78.9258 54.1706 84.8932 55.4488Z" fill="#4BB79A"/>
<path d="M72.9368 65.8004C70.1209 60.5866 67.7713 56.1506 64.9123 50.9276C63.4241 48.1679 61.374 45.2878 58.5708 43.6025C58.1324 43.3278 57.6848 43.0963 57.2279 42.908C56.1844 42.5037 55.0175 42.2538 53.8938 42.0131C52.7701 41.7724 51.6032 41.5224 50.4332 41.4978C49.9392 41.4824 49.436 41.5102 48.9236 41.5813C45.676 41.9705 42.6694 43.7674 40.1382 45.6662C35.4338 49.2692 31.4733 52.3535 26.7257 55.9472C19.8512 60.3962 11.5505 65.1726 10.9678 74.2239C11.2769 78.9008 13.4969 83.9418 18.8902 86.4079C21.9064 87.732 32.5227 87.3391 43.2412 89.635L44.0192 89.8016C54.7376 92.0975 64.2709 96.7612 67.5555 96.832C73.4858 96.7913 77.5851 93.0587 79.7734 88.962C83.0018 80.4322 77.3858 72.6749 72.9368 65.8004Z" fill="#4BB79A"/>
</svg>
